<?xml version="1.0" standalone="no"?><!DOCTYPE svg PUBLIC "-//W3C//DTD SVG 1.1//EN" "http://www.w3.org/Graphics/SVG/1.1/DTD/svg11.dtd"><svg t="1722396033318" class="icon" viewBox="0 0 7808 1024" version="1.1" xmlns="http://www.w3.org/2000/svg" p-id="5761" xmlns:xlink="http://www.w3.org/1999/xlink" width="1952" height="256"><path d="M693.381166 489.040359h252.556054v45.919282h-252.556054zM1085.991031 489.040359h252.556054v45.919282h-252.556054zM1478.600897 489.040359h252.556054v45.919282h-252.556054zM1871.210762 489.040359h252.556054v45.919282h-252.556054zM2263.820628 489.040359h252.556054v45.919282h-252.556054zM2656.430493 489.040359h252.556054v45.919282h-252.556054zM3049.040359 489.040359h252.556054v45.919282h-252.556054zM3441.650224 489.040359h252.556054v45.919282h-252.556054zM3836.556054 489.040359h252.556054v45.919282h-252.556054zM4229.165919 489.040359h252.556054v45.919282h-252.556054zM4621.775785 489.040359h252.556054v45.919282h-252.556054zM5014.38565 489.040359h252.556054v45.919282h-252.556054zM5406.995516 489.040359h252.556054v45.919282h-252.556054zM5799.605381 489.040359h252.556054v45.919282h-252.556054zM6192.215247 489.040359h252.556053v45.919282h-252.556053zM6584.825112 489.040359h252.556054v45.919282h-252.556054zM6977.434978 489.040359h252.556053v45.919282h-252.556053z" p-id="5762"></path></svg>